<?xml version="1.0" standalone="yes"?>

<svg version="1.1" viewBox="0.0 0.0 500.0 500.0" fill="none" stroke="none" stroke-linecap="square" stroke-miterlimit="10" xmlns="http://www.w3.org/2000/svg" xmlns:xlink="http://www.w3.org/1999/xlink"><clipPath id="p.0"><path d="m0 0l500.0 0l0 500.0l-500.0 0l0 -500.0z" clip-rule="nonzero"></path></clipPath><g clip-path="url(#p.0)"><path fill="#000000" fill-opacity="0.0" d="m0 0l500.0 0l0 500.0l-500.0 0z" fill-rule="nonzero"></path><path fill="#cc0000" d="m14.913385 250.0l235.08661 -226.69292l235.08661 226.69292l-235.08661 226.6929z" fill-rule="nonzero"></path><path stroke="#004153" stroke-width="24.0" stroke-linejoin="round" stroke-linecap="butt" d="m14.913385 250.0l235.08661 -226.69292l235.08661 226.69292l-235.08661 226.6929z" fill-rule="nonzero"></path><path fill="#dcdcdc" d="m177.46057 252.02501q0 -38.984375 8.015625 -62.734375q8.03125 -23.765625 23.84375 -36.65625q15.8125 -12.890625 39.796875 -12.890625q17.6875 0 31.03125 7.125q13.34375 7.109375 22.03125 20.53125q8.703125 13.421875 13.640625 32.6875q4.953125 19.25 4.953125 51.9375q0 38.67186 -7.953125 62.437485q-7.9375 23.75 -23.75 36.71875q-15.8125 12.96875 -39.953125 12.96875q-31.78125 0 -49.90625 -22.78125q-21.75 -27.4375 -21.75 -89.343735zm27.734375 0q0 54.10936 12.671875 72.031235q12.671875 17.90625 31.25 17.90625q18.59375 0 31.25 -17.984375q12.671875 -18.0 12.671875 -71.95311q0 -54.265625 -12.671875 -72.109375q-12.65625 -17.84375 -31.546875 -17.84375q-18.59375 0 -29.671875 15.75q-13.953125 20.078125 -13.953125 74.203125z" fill-rule="nonzero"></path><path fill="#000000" fill-opacity="0.0" d="m0.002624672 0l500.0 0l0 421.7638l-500.0 0z" fill-rule="nonzero"></path><path stroke="#dcdcdc" stroke-width="1.0" stroke-linejoin="round" stroke-linecap="butt" d="m0.002624672 0l500.0 0l0 421.7638l-500.0 0z" fill-rule="nonzero"></path><path fill="#dcdcdc" d="m350.51825 184.55063q25.125 27.390625 43.453125 41.671875q18.328125 14.265625 34.59375 21.25l0 8.5q-18.71875 9.078125 -36.296875 23.15625q-17.5625 14.078125 -41.9375 41.28125l-14.5625 0q17.765625 -37.984375 37.234375 -58.390625l-301.40625 0l0 -19.078125l301.40625 0q-14.359375 -18.328125 -20.03125 -27.203125q-5.671875 -8.890625 -16.8125 -31.1875l14.359375 0z" fill-rule="nonzero"></path></g></svg>

